<svg width="20" height="20" viewBox="0 0 20 20" fill="none" xmlns="http://www.w3.org/2000/svg">
<path d="M10.0001 6.24468C7.92181 6.24468 6.24456 7.92193 6.24456 10.0002C6.24456 12.0784 7.92181 13.7557 10.0001 13.7557C12.0783 13.7557 13.7556 12.0784 13.7556 10.0002C13.7556 7.92193 12.0783 6.24468 10.0001 6.24468ZM10.0001 12.441C8.65606 12.441 7.55926 11.3442 7.55926 10.0002C7.55926 8.65618 8.65606 7.55938 10.0001 7.55938C11.3441 7.55938 12.4409 8.65618 12.4409 10.0002C12.4409 11.3442 11.3441 12.441 10.0001 12.441ZM13.9094 5.21563C13.4241 5.21563 13.0323 5.60748 13.0323 6.09271C13.0323 6.57794 13.4241 6.96978 13.9094 6.96978C14.3946 6.96978 14.7864 6.57977 14.7864 6.09271C14.7866 5.97749 14.764 5.86337 14.72 5.75689C14.6759 5.65042 14.6113 5.55367 14.5299 5.4722C14.4484 5.39073 14.3517 5.32613 14.2452 5.2821C14.1387 5.23808 14.0246 5.21549 13.9094 5.21563ZM17.3206 10.0002C17.3206 8.98944 17.3298 7.98785 17.273 6.97894C17.2162 5.80706 16.9489 4.76702 16.092 3.91009C15.2332 3.05133 14.195 2.78582 13.0231 2.72906C12.0124 2.6723 11.0108 2.68145 10.0019 2.68145C8.99115 2.68145 7.98956 2.6723 6.98065 2.72906C5.80877 2.78582 4.76873 3.05316 3.9118 3.91009C3.05303 4.76886 2.78753 5.80706 2.73077 6.97894C2.67401 7.98968 2.68316 8.99127 2.68316 10.0002C2.68316 11.0091 2.67401 12.0125 2.73077 13.0214C2.78753 14.1933 3.05487 15.2333 3.9118 16.0903C4.77056 16.949 5.80877 17.2145 6.98065 17.2713C7.99139 17.3281 8.99298 17.3189 10.0019 17.3189C11.0126 17.3189 12.0142 17.3281 13.0231 17.2713C14.195 17.2145 15.235 16.9472 16.092 16.0903C16.9507 15.2315 17.2162 14.1933 17.273 13.0214C17.3316 12.0125 17.3206 11.0109 17.3206 10.0002ZM15.7093 14.3178C15.5756 14.6511 15.4145 14.9001 15.1563 15.1564C14.8981 15.4146 14.6509 15.5757 14.3177 15.7094C13.3545 16.0921 11.0676 16.006 10.0001 16.006C8.93255 16.006 6.64373 16.0921 5.6806 15.7112C5.34735 15.5776 5.09832 15.4164 4.84198 15.1583C4.5838 14.9001 4.42266 14.6529 4.289 14.3196C3.90814 13.3547 3.9942 11.0677 3.9942 10.0002C3.9942 8.93267 3.90814 6.64386 4.289 5.68072C4.42266 5.34747 4.5838 5.09845 4.84198 4.8421C5.10015 4.58575 5.34735 4.42279 5.6806 4.28912C6.64373 3.90826 8.93255 3.99432 10.0001 3.99432C11.0676 3.99432 13.3564 3.90826 14.3195 4.28912C14.6528 4.42279 14.9018 4.58392 15.1581 4.8421C15.4163 5.10028 15.5775 5.34747 15.7111 5.68072C16.092 6.64386 16.0059 8.93267 16.0059 10.0002C16.0059 11.0677 16.092 13.3547 15.7093 14.3178Z" fill="#474747"/>
</svg>
