<svg width="20" height="20" viewBox="0 0 20 20" fill="none" xmlns="http://www.w3.org/2000/svg">
<g clip-path="url(#clip0_129_325)">
<path d="M15.7521 8.33066C15.8183 8.32838 15.8843 8.33945 15.9461 8.3632C16.0079 8.38695 16.0643 8.4229 16.1119 8.46891C16.1596 8.51492 16.1974 8.57005 16.2233 8.63101C16.2492 8.69197 16.2625 8.75751 16.2625 8.82373C16.2625 8.88995 16.2492 8.95549 16.2233 9.01645C16.1974 9.07741 16.1596 9.13254 16.1119 9.17855C16.0643 9.22456 16.0079 9.26051 15.9461 9.28426C15.8843 9.30801 15.8183 9.31908 15.7521 9.3168H14.3816V10.1957H15.7521C15.8187 10.1925 15.8853 10.2028 15.9477 10.226C16.0102 10.2492 16.0673 10.2849 16.1156 10.3309C16.1639 10.3769 16.2023 10.4322 16.2285 10.4934C16.2548 10.5547 16.2683 10.6206 16.2683 10.6873C16.2683 10.754 16.2548 10.8199 16.2285 10.8812C16.2023 10.9425 16.1639 10.9978 16.1156 11.0437C16.0673 11.0897 16.0102 11.1254 15.9477 11.1486C15.8853 11.1719 15.8187 11.1822 15.7521 11.1789H13.8906C13.7605 11.1784 13.6358 11.1265 13.5439 11.0343C13.452 10.9422 13.4003 10.8174 13.4002 10.6873V6.96074C13.4002 6.68945 13.6199 6.4668 13.8906 6.4668H15.7557C15.8822 6.47333 16.0013 6.5283 16.0885 6.62029C16.1756 6.71229 16.2239 6.83427 16.2236 6.96096C16.2232 7.08766 16.1741 7.20935 16.0864 7.30083C15.9988 7.39231 15.8793 7.44656 15.7527 7.45234H14.3822V8.33125L15.7521 8.33066ZM12.7439 10.6867C12.7429 10.8172 12.6903 10.942 12.5977 11.034C12.5051 11.1259 12.3799 11.1776 12.2494 11.1777C12.1721 11.1785 12.0958 11.1612 12.0263 11.1274C11.9568 11.0935 11.8962 11.044 11.8492 10.9826L9.94199 8.38867V10.6861C9.94199 10.8165 9.8902 10.9416 9.79801 11.0337C9.70581 11.1259 9.58077 11.1777 9.45039 11.1777C9.32001 11.1777 9.19497 11.1259 9.10278 11.0337C9.01058 10.9416 8.95879 10.8165 8.95879 10.6861V6.95957C8.95879 6.74922 9.09648 6.56055 9.29453 6.49316C9.34344 6.47589 9.39501 6.46736 9.44687 6.46797C9.59922 6.46797 9.73984 6.55059 9.83418 6.6666L11.7566 9.26641V6.95957C11.7566 6.68828 11.9764 6.46562 12.2482 6.46562C12.5201 6.46562 12.7428 6.68828 12.7428 6.95957L12.7439 10.6867ZM8.25801 10.6867C8.25739 10.8174 8.20499 10.9425 8.1123 11.0347C8.01961 11.1268 7.89418 11.1785 7.76348 11.1783C7.63375 11.1772 7.5097 11.125 7.4183 11.0329C7.3269 10.9409 7.27554 10.8164 7.27539 10.6867V6.96016C7.27539 6.68887 7.49512 6.46621 7.76699 6.46621C8.03828 6.46621 8.25859 6.68887 8.25859 6.96016L8.25801 10.6867ZM6.33203 11.1783H4.46699C4.33643 11.178 4.21127 11.1262 4.11867 11.0342C4.02608 10.9421 3.97354 10.8173 3.97246 10.6867V6.96016C3.97246 6.68887 4.19512 6.46621 4.46699 6.46621C4.73887 6.46621 4.95859 6.68887 4.95859 6.96016V10.1951H6.33203C6.46241 10.1951 6.58745 10.2469 6.67965 10.3391C6.77184 10.4313 6.82363 10.5563 6.82363 10.6867C6.82363 10.8171 6.77184 10.9421 6.67965 11.0343C6.58745 11.1265 6.46241 11.1783 6.33203 11.1783ZM19.375 8.68105C19.375 4.48516 15.1662 1.07031 10 1.07031C4.83379 1.07031 0.625 4.48516 0.625 8.68105C0.625 12.441 3.96074 15.5904 8.46484 16.1887C8.77012 16.2525 9.18496 16.3902 9.29219 16.6498C9.38652 16.8842 9.35312 17.2475 9.32266 17.4953L9.19434 18.2916C9.15742 18.5266 9.00508 19.2168 10.0123 18.7955C11.0225 18.3742 15.417 15.6098 17.3852 13.3445C18.7311 11.8709 19.375 10.3568 19.375 8.68105Z" fill="#474747"/>
</g>
<defs>
<clipPath id="clip0_129_325">
<rect width="18.75" height="18.75" fill="white" transform="translate(0.625 0.625)"/>
</clipPath>
</defs>
</svg>
