<svg width="24" height="24" viewBox="0 0 24 24" fill="none" xmlns="http://www.w3.org/2000/svg">
<path fill-rule="evenodd" clip-rule="evenodd" d="M5.94794 3.90811C5.84073 3.50801 5.42948 3.27057 5.02938 3.37778C4.23201 3.59143 3.52741 4.06223 3.02488 4.71714C2.52234 5.37206 2.24995 6.1745 2.24995 7C2.24995 7.8255 2.52234 8.62794 3.02488 9.28286C3.52741 9.93777 4.23201 10.4086 5.02938 10.6222C5.42948 10.7294 5.84073 10.492 5.94794 10.0919C6.05515 9.69179 5.81771 9.28054 5.41761 9.17333C4.93919 9.04514 4.51643 8.76266 4.21491 8.36971C3.91339 7.97676 3.74995 7.4953 3.74995 7C3.74995 6.5047 3.91339 6.02324 4.21491 5.63029C4.51643 5.23734 4.93919 4.95486 5.41761 4.82667C5.81771 4.71946 6.05515 4.30821 5.94794 3.90811Z" fill="#0D0B4E"/>
<path fill-rule="evenodd" clip-rule="evenodd" d="M4.74995 14C4.74995 13.5858 4.41417 13.25 3.99995 13.25H3.69254C2.3636 13.25 1.16854 14.0591 0.674987 15.293C-0.178937 17.4278 1.39328 19.75 3.69254 19.75H3.99995C4.41417 19.75 4.74995 19.4142 4.74995 19C4.74995 18.5858 4.41417 18.25 3.99995 18.25H3.69254C2.45447 18.25 1.6079 16.9996 2.0677 15.8501C2.33346 15.1857 2.97695 14.75 3.69254 14.75H3.99995C4.41417 14.75 4.74995 14.4142 4.74995 14Z" fill="#0D0B4E"/>
<path fill-rule="evenodd" clip-rule="evenodd" d="M12 3.75C10.205 3.75 8.74995 5.20507 8.74995 7C8.74995 8.79493 10.205 10.25 12 10.25C13.7949 10.25 15.25 8.79493 15.25 7C15.25 5.20507 13.7949 3.75 12 3.75ZM7.24995 7C7.24995 4.37665 9.3766 2.25 12 2.25C14.6233 2.25 16.75 4.37665 16.75 7C16.75 9.62335 14.6233 11.75 12 11.75C9.3766 11.75 7.24995 9.62335 7.24995 7Z" fill="#0D0B4E"/>
<path fill-rule="evenodd" clip-rule="evenodd" d="M8.70965 13.0278H15.2903C15.3526 13.0278 15.3954 13.0278 15.4361 13.0287C16.8772 13.0598 18.1729 13.9142 18.7692 15.2265C18.786 15.2635 18.8029 15.3029 18.8275 15.3602L18.8385 15.3861C18.8898 15.5056 18.9241 15.5856 18.9489 15.6499C19.8761 18.0525 18.1611 20.6533 15.5875 20.7475C15.5187 20.75 15.4316 20.75 15.3014 20.75H8.69848C8.5683 20.75 8.48125 20.75 8.4124 20.7475C5.83879 20.6533 4.12384 18.0525 5.05105 15.6499C5.07585 15.5856 5.11015 15.5056 5.16143 15.3859L5.17247 15.3602C5.19703 15.3029 5.2139 15.2635 5.23071 15.2265C5.827 13.9142 7.12273 13.0598 8.56385 13.0287C8.60446 13.0278 8.64731 13.0278 8.70965 13.0278ZM8.71807 14.5278C8.64416 14.5278 8.61857 14.5278 8.59623 14.5283C7.73156 14.547 6.95412 15.0596 6.59635 15.847C6.58711 15.8674 6.57699 15.8909 6.54787 15.9588C6.48613 16.1029 6.46395 16.155 6.45046 16.1899C5.89413 17.6315 6.9231 19.192 8.46727 19.2485C8.50472 19.2499 8.56135 19.25 8.71807 19.25H15.2818C15.4386 19.25 15.4952 19.2499 15.5326 19.2485C17.0768 19.192 18.1058 17.6315 17.5494 16.1899C17.536 16.155 17.5138 16.1029 17.452 15.9588C17.4229 15.8909 17.4128 15.8674 17.4036 15.847C17.0458 15.0596 16.2683 14.547 15.4037 14.5283C15.3813 14.5278 15.3557 14.5278 15.2818 14.5278H8.71807Z" fill="#0D0B4E"/>
</svg>
