<svg width="85" height="85" viewBox="0 0 85 85" fill="none" xmlns="http://www.w3.org/2000/svg">
<path fill-rule="evenodd" clip-rule="evenodd" d="M62.8297 39.5754C63.8075 41.4025 63.8075 43.5974 62.8297 45.4244C62.3594 46.3031 61.6639 46.9364 61.0206 47.4398C60.3963 47.9282 59.5874 48.4674 58.6721 49.0776L41.523 60.5103C40.4061 61.255 39.4426 61.8974 38.6358 62.3501C37.8313 62.8016 36.8432 63.2684 35.7159 63.3229C33.4328 63.4333 31.2743 62.2781 30.0997 60.3172C29.5197 59.349 29.36 58.2679 29.2894 57.3481C29.2186 56.4257 29.2187 55.2677 29.2187 53.9253L29.2187 31.0745C29.2187 29.7321 29.2186 28.5741 29.2894 27.6517C29.36 26.7319 29.5197 25.6508 30.0997 24.6826C31.2743 22.7217 33.4328 21.5665 35.7159 21.6769C36.8432 21.7314 37.8313 22.1982 38.6358 22.6497C39.4426 23.1024 40.4061 23.7448 41.523 24.4895L58.672 35.9222C59.5874 36.5324 60.3963 37.0716 61.0206 37.5601C61.6639 38.0634 62.3594 38.6967 62.8297 39.5754ZM57.747 43.2557C58.0267 43.0369 58.1326 42.9217 58.1599 42.8903C58.2808 42.6441 58.2808 42.3557 58.1599 42.1095C58.1326 42.0781 58.0267 41.9629 57.747 41.7441C57.3014 41.3955 56.6644 40.9686 55.6461 40.2898L38.6609 28.9663C37.4351 28.1491 36.6428 27.6231 36.0359 27.2825C35.6471 27.0643 35.4618 26.9987 35.4121 26.9822C35.1194 26.9836 34.846 27.1299 34.6824 27.3727C34.6686 27.4233 34.6205 27.6138 34.5864 28.0583C34.5331 28.7522 34.5312 29.7032 34.5312 31.1764V53.8234C34.5312 55.2966 34.5331 56.2476 34.5864 56.9415C34.6205 57.3861 34.6686 57.5766 34.6824 57.6271C34.846 57.8699 35.1194 58.0162 35.4121 58.0177C35.4618 58.0011 35.6471 57.9355 36.0359 57.7173C36.6428 57.3767 37.4351 56.8507 38.6609 56.0335L55.6461 44.71C56.6644 44.0312 57.3014 43.6044 57.747 43.2557Z" fill="white"/>
<path fill-rule="evenodd" clip-rule="evenodd" d="M42.5 4.42706C21.4729 4.42706 4.42712 21.4729 4.42712 42.5C4.42712 63.5271 21.4729 80.5729 42.5 80.5729C63.5271 80.5729 80.573 63.5271 80.573 42.5C80.573 21.4729 63.5271 4.42706 42.5 4.42706ZM9.73962 42.5C9.73962 24.4069 24.407 9.73956 42.5 9.73956C60.5931 9.73956 75.2605 24.4069 75.2605 42.5C75.2605 60.5931 60.5931 75.2604 42.5 75.2604C24.407 75.2604 9.73962 60.5931 9.73962 42.5Z" fill="white"/>
</svg>
