<svg width="24" height="24" viewBox="0 0 24 24" fill="none" xmlns="http://www.w3.org/2000/svg">
<path d="M16.5205 9.54C16.8187 9.25255 16.8275 8.77775 16.54 8.47952C16.2525 8.18129 15.7778 8.17255 15.4795 8.46L10.8141 12.9568L8.52211 10.7343C8.22475 10.4459 7.74993 10.4533 7.46158 10.7506C7.17322 11.048 7.18053 11.5228 7.47789 11.8112L10.2904 14.5384C10.5807 14.8199 11.0418 14.8206 11.333 14.54L16.5205 9.54Z" fill="#0D0B4E"/>
<path fill-rule="evenodd" clip-rule="evenodd" d="M14.567 3.39381C13.9136 0.702714 10.0864 0.702715 9.433 3.39381C9.25059 4.14508 8.38987 4.5016 7.72966 4.09936C5.36474 2.65849 2.65849 5.36474 4.09936 7.72966C4.5016 8.38987 4.14508 9.25059 3.39381 9.433C0.702715 10.0864 0.702714 13.9136 3.39381 14.567C4.14508 14.7494 4.5016 15.6101 4.09935 16.2704C2.65849 18.6353 5.36474 21.3415 7.72966 19.9007C8.38987 19.4984 9.25059 19.8549 9.433 20.6062C10.0864 23.2973 13.9136 23.2973 14.567 20.6062C14.7494 19.8549 15.6101 19.4984 16.2704 19.9007C18.6353 21.3415 21.3415 18.6353 19.9007 16.2704C19.4984 15.6101 19.8549 14.7494 20.6062 14.567C23.2973 13.9136 23.2973 10.0864 20.6062 9.433C19.8549 9.25059 19.4984 8.38987 19.9007 7.72966C21.3415 5.36474 18.6353 2.65849 16.2704 4.09935C15.6101 4.5016 14.7494 4.14508 14.567 3.39381ZM10.8906 3.74773C11.173 2.58474 12.827 2.58474 13.1094 3.74773C13.5315 5.48613 15.5231 6.3111 17.0508 5.38033C18.0728 4.75764 19.2424 5.92718 18.6197 6.9492C17.6889 8.4769 18.5139 10.4686 20.2523 10.8906C21.4153 11.173 21.4153 12.827 20.2523 13.1094C18.5139 13.5315 17.6889 15.5231 18.6197 17.0508C19.2424 18.0728 18.0728 19.2424 17.0508 18.6197C15.5231 17.6889 13.5315 18.5139 13.1094 20.2523C12.827 21.4153 11.173 21.4153 10.8906 20.2523C10.4686 18.5139 8.4769 17.6889 6.9492 18.6197C5.92718 19.2424 4.75764 18.0728 5.38033 17.0508C6.3111 15.5231 5.48613 13.5315 3.74773 13.1094C2.58474 12.827 2.58474 11.173 3.74773 10.8906C5.48613 10.4686 6.3111 8.4769 5.38033 6.9492C4.75764 5.92718 5.92718 4.75764 6.9492 5.38033C8.4769 6.31111 10.4686 5.48613 10.8906 3.74773Z" fill="#0D0B4E"/>
</svg>
