<svg width="20" height="20" viewBox="0 0 20 20" fill="none" xmlns="http://www.w3.org/2000/svg">
<g clip-path="url(#clip0_129_320)">
<path d="M19.096 4.48205C18.4437 4.77111 17.7429 4.96642 17.0062 5.0547C17.7663 4.59985 18.335 3.88397 18.6062 3.04064C17.892 3.46485 17.1103 3.76345 16.2952 3.92345C15.7471 3.33819 15.021 2.95027 14.2298 2.81992C13.4386 2.68956 12.6265 2.82407 11.9196 3.20256C11.2127 3.58104 10.6505 4.18233 10.3203 4.91306C9.99016 5.6438 9.91048 6.4631 10.0937 7.24376C8.64653 7.1711 7.23086 6.79497 5.93852 6.13978C4.64617 5.48459 3.50603 4.56498 2.59209 3.44064C2.27959 3.9797 2.0999 4.6047 2.0999 5.27033C2.09955 5.86954 2.24712 6.45958 2.5295 6.98809C2.81187 7.51659 3.22034 7.96723 3.71865 8.30001C3.14074 8.28163 2.57558 8.12547 2.07021 7.84455V7.89142C2.07016 8.73184 2.36087 9.5464 2.89301 10.1969C3.42516 10.8474 4.16597 11.2937 4.98975 11.4602C4.45364 11.6053 3.89157 11.6266 3.346 11.5227C3.57842 12.2458 4.03115 12.8782 4.64081 13.3312C5.25048 13.7843 5.98656 14.0353 6.746 14.0492C5.4568 15.0613 3.86466 15.6102 2.22568 15.6078C1.93536 15.6079 1.64527 15.5909 1.35693 15.557C3.02059 16.6267 4.9572 17.1944 6.93506 17.1922C13.6304 17.1922 17.2905 11.6469 17.2905 6.83751C17.2905 6.68126 17.2866 6.52345 17.2796 6.3672C17.9915 5.85234 18.6061 5.21478 19.0944 4.48439L19.096 4.48205Z" fill="#474747"/>
</g>
<defs>
<clipPath id="clip0_129_320">
<rect width="18.75" height="18.75" fill="white" transform="translate(0.625 0.625)"/>
</clipPath>
</defs>
</svg>
