<svg width="22" height="22" viewBox="0 0 22 22" fill="#1A1A1A" xmlns="http://www.w3.org/2000/svg">
<path d="M6.78731 2.76498C8.74734 1.76232 11.0007 1.49162 13.1425 2.00155C14.7136 2.37563 16.1491 3.15181 17.3148 4.24089L15.5981 5.23205C15.3565 5.37155 15.2123 5.63365 15.2237 5.91242C15.2352 6.19119 15.4005 6.44054 15.6528 6.55971L19.7778 8.50827C20.0002 8.61335 20.26 8.60265 20.4731 8.47964C20.6862 8.35663 20.8253 8.13696 20.8456 7.89177L21.2206 3.34514C21.2435 3.06708 21.1102 2.79927 20.8745 2.64995C20.6388 2.50062 20.3397 2.49447 20.0981 2.63397L18.6642 3.46186C17.2553 2.02945 15.4648 1.01255 13.4899 0.542337C11.0008 -0.0502799 8.38204 0.264314 6.10417 1.42957C3.8263 2.59483 2.03874 4.53435 1.06278 6.89951C0.0868164 9.26468 -0.01355 11.9004 0.77972 14.3329C1.57299 16.7655 3.20788 18.8353 5.39053 20.1704C7.57319 21.5055 10.1605 22.0184 12.6874 21.6168C15.2143 21.2151 17.5151 19.9254 19.1762 17.9794C20.8374 16.0334 21.75 13.5586 21.75 11C21.75 10.5858 21.4142 10.25 21 10.25C20.5858 10.25 20.25 10.5858 20.25 11C20.25 13.2016 19.4647 15.331 18.0354 17.0055C16.606 18.68 14.6262 19.7898 12.4519 20.1354C10.2776 20.4809 8.05135 20.0396 6.17325 18.8908C4.29515 17.742 2.88839 15.961 2.20581 13.8679C1.52322 11.7748 1.60959 9.50682 2.44937 7.47168C3.28915 5.43653 4.82728 3.76765 6.78731 2.76498Z" fill="#1A1A1A"/>
<path d="M11 5.25C11.4142 5.25 11.75 5.58579 11.75 6V10.6893L15.5303 14.4697C15.8232 14.7626 15.8232 15.2374 15.5303 15.5303C15.2374 15.8232 14.7626 15.8232 14.4697 15.5303L10.4697 11.5303C10.3978 11.4584 10.3435 11.3755 10.3069 11.2871C10.2702 11.1987 10.25 11.1017 10.25 11V6C10.25 5.58579 10.5858 5.25 11 5.25Z" fill="#1A1A1A"/>
</svg>
